# xmcd
#
# Track frame offsets:
#	150
#	20160
#	42006
#	59737
#	76397
#	92222
#	110155
#	123400
#	139987
#	156253
#	172944
#	188804
#
# Disc length: 2734 seconds
#
# Revision: 0
# Processed by: cddbd v1.5.1PL2 Copyright (c) Steve Scherf et al.
# Submitted via: audiograbber 1.83.01
#
DISCID=a90aac0c
DTITLE=Rockie Lynne - Lipstick
DYEAR=2006
DGENRE=Country
TTITLE0=Lipstick
TTITLE1=The Only Reason
TTITLE2=More
TTITLE3=Super Country Cowboy
TTITLE4=That's Where Songs Come From
TTITLE5=Do We Still
TTITLE6=Big Time In A Small Town
TTITLE7=Don't Make This Easy on Me
TTITLE8=Love Me Like You're Gonna Lose Me
TTITLE9=Every Man's Got a Mountain
TTITLE10=Holding Back The Ocean
TTITLE11=Red, White and Blue
EXTD=
EXTT0=
EXTT1=
EXTT2=
EXTT3=
EXTT4=
EXTT5=
EXTT6=
EXTT7=
EXTT8=
EXTT9=
EXTT10=
EXTT11=
PLAYORDER=
